# xmcd
#
# Track frame offsets:
#	150
#	15948
#	37174
#	50765
#	75199
#	98846
#	121162
#	138894
#	156436
#	179019
#
# Disc length: 2639 seconds
#
# Revision: 1
# Processed by: cddbd v1.5.1PL0 Copyright (c) Steve Scherf et al.
# Submitted via: EasyCDDAExtractor 7.0.5.1
#
DISCID=790a4d0a
DTITLE=Lee Howard - Messenger
DYEAR=2004
DGENRE=Country
TTITLE0=The Rain
TTITLE1=End of The Trend
TTITLE2=Messenger
TTITLE3=So Long Taylor
TTITLE4=Wind
TTITLE5=Steppenwolf
TTITLE6=We Are Blessed
TTITLE7=Backgammon Heart
TTITLE8=Forgive Yourself
TTITLE9=Black and Blue
EXTD=
EXTT0=
EXTT1=
EXTT2=
EXTT3=
EXTT4=
EXTT5=
EXTT6=
EXTT7=
EXTT8=
EXTT9=
PLAYORDER=
